<svg width="300" height="300" viewBox="0 0 300 300" fill="none" xmlns="http://www.w3.org/2000/svg">
<path d="M2.5 10C2.5 5.85787 5.85787 2.5 10 2.5H290C294.142 2.5 297.5 5.85787 297.5 10V290C297.5 294.142 294.142 297.5 290 297.5H10C5.85787 297.5 2.5 294.142 2.5 290V10Z" stroke="#FDFDFD" stroke-width="5"/>
<path d="M200.843 135.012V139.788H190.478V164.915H185.296V139.789H174.715V135.012H200.843ZM202.008 162.066C202.373 162.066 202.692 162.196 202.963 162.457C203.237 162.717 203.373 163.029 203.377 163.392C203.376 163.631 203.31 163.864 203.184 164.067C203.06 164.268 202.888 164.434 202.682 164.551C202.478 164.671 202.245 164.734 202.008 164.732C201.628 164.732 201.305 164.602 201.035 164.342C200.765 164.081 200.631 163.766 200.634 163.392C200.631 163.029 200.765 162.717 201.035 162.457C201.305 162.196 201.628 162.066 202.008 162.066ZM99.2918 164.915L80.1826 141.391V164.902H75V135H81.4778L105.62 164.691L105.621 139.789L105.618 135.012H131.745V139.788H110.803V147.472H127.645V152.248H110.803V160.139H131.746V164.915H99.2918ZM148.355 152.202L151.751 156.384L144.792 164.95H137.991L148.355 152.202ZM144.792 135.025L153.56 145.81L162.301 135.058L169.084 135.048L156.956 149.986L169.103 164.927H162.301L138.01 135.025H144.792ZM210.853 152.135H213.149V160.898C213.146 161.703 212.97 162.391 212.626 162.971C212.278 163.55 211.797 163.992 211.179 164.304C210.565 164.612 209.845 164.77 209.027 164.77C208.279 164.77 207.608 164.636 207.011 164.376C206.414 164.115 205.941 163.725 205.593 163.211C205.241 162.697 205.069 162.056 205.069 161.288H207.37C207.373 161.624 207.45 161.915 207.598 162.159C207.743 162.399 207.955 162.593 208.209 162.717C208.472 162.848 208.774 162.913 209.114 162.913C209.484 162.913 209.799 162.837 210.056 162.683C210.312 162.532 210.509 162.306 210.646 162.004C210.779 161.706 210.849 161.336 210.853 160.897V152.135ZM222.598 155.562C222.542 155.031 222.296 154.616 221.868 154.321C221.436 154.023 220.878 153.876 220.193 153.876C219.712 153.876 219.298 153.948 218.953 154.089C218.609 154.232 218.343 154.424 218.16 154.668C217.978 154.911 217.886 155.188 217.879 155.5C217.879 155.761 217.942 155.987 218.065 156.175C218.192 156.373 218.364 156.538 218.567 156.659C218.787 156.796 219.023 156.907 219.27 156.991C219.529 157.08 219.789 157.155 220.049 157.217L221.246 157.509C221.728 157.618 222.195 157.765 222.64 157.954C223.086 158.139 223.49 158.375 223.845 158.66C224.199 158.944 224.48 159.287 224.687 159.688C224.895 160.089 225 160.558 225 161.1C225 161.829 224.81 162.47 224.428 163.025C224.045 163.577 223.494 164.009 222.77 164.321C222.05 164.629 221.179 164.787 220.154 164.787C219.164 164.787 218.3 164.636 217.573 164.335C216.843 164.037 216.274 163.598 215.863 163.022C215.452 162.446 215.231 161.744 215.2 160.918H217.475C217.507 161.35 217.647 161.71 217.886 162.001C218.128 162.289 218.444 162.501 218.831 162.645C219.22 162.786 219.656 162.858 220.137 162.858C220.639 162.858 221.081 162.782 221.464 162.635C221.843 162.488 222.142 162.282 222.356 162.015C222.574 161.751 222.683 161.439 222.686 161.083C222.683 160.757 222.584 160.486 222.394 160.274C222.201 160.061 221.934 159.883 221.594 159.739C221.25 159.595 220.85 159.465 220.393 159.352L218.939 158.989C217.889 158.725 217.057 158.324 216.45 157.786C215.839 157.248 215.537 156.535 215.537 155.641C215.537 154.908 215.74 154.263 216.151 153.711C216.559 153.16 217.117 152.731 217.823 152.427C218.532 152.118 219.333 151.967 220.224 151.967C221.13 151.967 221.924 152.118 222.609 152.427C223.293 152.731 223.831 153.156 224.22 153.698C224.61 154.239 224.814 154.859 224.825 155.562H222.598Z" fill="#D9D9D9"/>
</svg>
