<svg width="70" height="70" viewBox="0 0 70 70" fill="none" xmlns="http://www.w3.org/2000/svg">
<path d="M1.16667 0C0.857247 0 0.560501 0.122916 0.341709 0.341709C0.122916 0.560501 0 0.857247 0 1.16667V59.5C0 59.8094 0.122916 60.1062 0.341709 60.325C0.560501 60.5438 0.857247 60.6667 1.16667 60.6667H38.934C41.5613 66.1733 47.1683 70 53.6667 70C62.6733 70 70 62.6733 70 53.6667C70 46.2817 65.072 40.0307 58.3333 38.017V10.7333C58.367 10.5741 58.367 10.4096 58.3333 10.2503V1.16667C58.3333 0.857247 58.2104 0.560501 57.9916 0.341709C57.7728 0.122916 57.4761 0 57.1667 0H1.16667ZM2.33333 2.33333H56V9.33333H2.33333V2.33333ZM43.1667 4.66667C42.8572 4.66667 42.5605 4.78958 42.3417 5.00838C42.1229 5.22717 42 5.52391 42 5.83333C42 6.14275 42.1229 6.4395 42.3417 6.65829C42.5605 6.87708 42.8572 7 43.1667 7C43.4761 7 43.7728 6.87708 43.9916 6.65829C44.2104 6.4395 44.3333 6.14275 44.3333 5.83333C44.3333 5.52391 44.2104 5.22717 43.9916 5.00838C43.7728 4.78958 43.4761 4.66667 43.1667 4.66667ZM47.8333 4.66667C47.5239 4.66667 47.2272 4.78958 47.0084 5.00838C46.7896 5.22717 46.6667 5.52391 46.6667 5.83333C46.6667 6.14275 46.7896 6.4395 47.0084 6.65829C47.2272 6.87708 47.5239 7 47.8333 7C48.1427 7 48.4395 6.87708 48.6583 6.65829C48.8771 6.4395 49 6.14275 49 5.83333C49 5.52391 48.8771 5.22717 48.6583 5.00838C48.4395 4.78958 48.1427 4.66667 47.8333 4.66667ZM52.5 4.66667C52.1906 4.66667 51.8938 4.78958 51.675 5.00838C51.4562 5.22717 51.3333 5.52391 51.3333 5.83333C51.3333 6.14275 51.4562 6.4395 51.675 6.65829C51.8938 6.87708 52.1906 7 52.5 7C52.8094 7 53.1062 6.87708 53.325 6.65829C53.5438 6.4395 53.6667 6.14275 53.6667 5.83333C53.6667 5.52391 53.5438 5.22717 53.325 5.00838C53.1062 4.78958 52.8094 4.66667 52.5 4.66667ZM2.33333 11.6667H56V37.5153C55.2276 37.3988 54.4478 37.338 53.6667 37.3333C50.7141 37.3338 47.8176 38.1406 45.29 39.6667H39.6667V42H42.2567C40.6986 43.5174 39.4603 45.3315 38.6147 47.3353C37.7691 49.339 37.3334 51.4918 37.3333 53.6667H7V56H37.52C37.6367 56.7957 37.7953 57.5773 38.0217 58.3333H2.33333V11.6667ZM9.33333 14V16.3333H51.3333V14H9.33333ZM11.6667 18.6667V21H49V18.6667H11.6667ZM8.16667 23.3333C7.85725 23.3333 7.5605 23.4562 7.34171 23.675C7.12292 23.8938 7 24.1906 7 24.5V33.8333C7 34.1427 7.12292 34.4395 7.34171 34.6583C7.5605 34.8771 7.85725 35 8.16667 35H17.5C17.8094 35 18.1062 34.8771 18.325 34.6583C18.5438 34.4395 18.6667 34.1427 18.6667 33.8333V24.5C18.6667 24.1906 18.5438 23.8938 18.325 23.675C18.1062 23.4562 17.8094 23.3333 17.5 23.3333H8.16667ZM24.5 23.3333C24.1906 23.3333 23.8938 23.4562 23.675 23.675C23.4562 23.8938 23.3333 24.1906 23.3333 24.5V33.8333C23.3333 34.1427 23.4562 34.4395 23.675 34.6583C23.8938 34.8771 24.1906 35 24.5 35H33.8333C34.1427 35 34.4395 34.8771 34.6583 34.6583C34.8771 34.4395 35 34.1427 35 33.8333V24.5C35 24.1906 34.8771 23.8938 34.6583 23.675C34.4395 23.4562 34.1427 23.3333 33.8333 23.3333H24.5ZM40.8333 23.3333C40.5239 23.3333 40.2272 23.4562 40.0084 23.675C39.7896 23.8938 39.6667 24.1906 39.6667 24.5V33.8333C39.6667 34.1427 39.7896 34.4395 40.0084 34.6583C40.2272 34.8771 40.5239 35 40.8333 35H50.1667C50.4761 35 50.7728 34.8771 50.9916 34.6583C51.2104 34.4395 51.3333 34.1427 51.3333 33.8333V24.5C51.3333 24.1906 51.2104 23.8938 50.9916 23.675C50.7728 23.4562 50.4761 23.3333 50.1667 23.3333H40.8333ZM9.33333 25.6667H16.3333V32.6667H9.33333V25.6667ZM25.6667 25.6667H32.6667V32.6667H25.6667V25.6667ZM42 25.6667H49V32.6667H42V25.6667ZM7 39.6667V42H18.6667V39.6667H7ZM23.3333 39.6667V42H35V39.6667H23.3333ZM53.6667 39.6667C61.4133 39.6667 67.6667 45.92 67.6667 53.6667C67.6667 61.4133 61.4133 67.6667 53.6667 67.6667C45.92 67.6667 39.6667 61.4133 39.6667 53.6667C39.6667 45.92 45.92 39.6667 53.6667 39.6667ZM9.33333 44.3333V46.6667H16.3333V44.3333H9.33333ZM25.6667 44.3333V46.6667H32.6667V44.3333H25.6667ZM56.014 45.486C55.7645 45.4845 55.5211 45.563 55.3196 45.71C55.118 45.857 54.9688 46.0647 54.894 46.3027L50.2273 60.3027C50.1742 60.4493 50.1509 60.6051 50.159 60.7609C50.1671 60.9167 50.2064 61.0693 50.2745 61.2096C50.3425 61.35 50.4381 61.4752 50.5554 61.578C50.6728 61.6808 50.8095 61.759 50.9576 61.808C51.1057 61.857 51.2621 61.8758 51.4176 61.8633C51.5731 61.8508 51.7245 61.8072 51.8629 61.7352C52.0013 61.6632 52.1238 61.5641 52.2232 61.4439C52.3226 61.3237 52.3969 61.1848 52.4417 61.0353L57.1083 47.0353C57.1692 46.86 57.1874 46.6726 57.1613 46.4888C57.1353 46.305 57.0657 46.1301 56.9585 45.9786C56.8512 45.8271 56.7094 45.7034 56.5447 45.6177C56.38 45.532 56.1973 45.4869 56.0117 45.486H56.014ZM47.8333 48.1297C47.5305 48.1291 47.2393 48.2462 47.0213 48.4563L42.518 52.6867C42.3767 52.7811 42.2576 52.9052 42.1693 53.0504C42.0809 53.1956 42.0254 53.3583 42.0065 53.5272C41.9876 53.6961 42.0058 53.8671 42.0599 54.0282C42.114 54.1894 42.2027 54.3367 42.3197 54.46C42.3296 54.4711 42.3397 54.482 42.35 54.4927C42.3592 54.5014 42.3685 54.5099 42.378 54.5183L47.0213 58.8817C47.2472 59.0939 47.5482 59.2078 47.858 59.1981C48.1678 59.1885 48.4611 59.0562 48.6733 58.8303C48.8856 58.6045 48.9994 58.3035 48.9898 57.9937C48.9802 57.6839 48.8479 57.3906 48.622 57.1783L44.884 53.6667L48.622 50.1573C48.7957 49.9985 48.9172 49.791 48.9708 49.5618C49.0243 49.3327 49.0073 49.0927 48.922 48.8734C48.8368 48.6541 48.6871 48.4657 48.4928 48.333C48.2985 48.2003 48.0686 48.1294 47.8333 48.1297ZM59.4277 48.1297C59.1948 48.1358 58.9691 48.2114 58.7797 48.3469C58.5902 48.4824 58.4456 48.6715 58.3645 48.8899C58.2835 49.1082 58.2696 49.3459 58.3248 49.5722C58.3799 49.7985 58.5016 50.0031 58.674 50.1597L62.412 53.6667L58.674 57.1807C58.4487 57.3929 58.317 57.686 58.3078 57.9953C58.2986 58.3047 58.4127 58.6051 58.625 58.8303C58.8373 59.0556 59.1303 59.1873 59.4397 59.1965C59.7491 59.2057 60.0494 59.0916 60.2747 58.8793L64.9087 54.523C64.9415 54.4944 64.9726 54.464 65.002 54.432C65.0242 54.4057 65.0452 54.3785 65.065 54.3503C65.0681 54.3472 65.0712 54.3441 65.0743 54.341C65.1674 54.2131 65.2336 54.0676 65.2687 53.9133C65.3038 53.759 65.3072 53.5992 65.2786 53.4436C65.25 53.2879 65.19 53.1398 65.1024 53.008C65.0147 52.8763 64.9012 52.7638 64.7687 52.6773L60.2747 48.4587C60.1627 48.35 60.03 48.2648 59.8845 48.2083C59.739 48.1518 59.5837 48.1251 59.4277 48.1297ZM9.33333 49V51.3333H16.3333V49H9.33333ZM25.6667 49V51.3333H32.6667V49H25.6667Z" fill="url(#paint0_linear_8_529)"/>
<defs>
<linearGradient id="paint0_linear_8_529" x1="0" y1="35" x2="60.6667" y2="35" gradientUnits="userSpaceOnUse">
<stop stop-color="#500092"/>
<stop offset="1" stop-color="#BB84E8"/>
</linearGradient>
</defs>
</svg>
