<svg width="90" height="90" viewBox="0 0 90 90" fill="none" xmlns="http://www.w3.org/2000/svg">
<path d="M45 0C20.1669 0 0 20.1669 0 45C0 69.8331 20.1669 90 45 90C69.8331 90 90 69.8331 90 45C90 20.1669 69.8331 0 45 0ZM45 3.46846C67.9604 3.46846 86.5385 22.0396 86.5385 45C86.5385 67.9604 67.9604 86.5385 45 86.5385C22.0396 86.5385 3.46154 67.9604 3.46154 45C3.46154 22.0396 22.0396 3.46846 45 3.46846ZM48.7246 17.3077C43.9581 17.3077 38.5546 18.1488 34.1515 20.7277C29.7415 23.31 26.4219 27.8688 26.4219 34.4388C26.4219 37.9488 26.1242 38.9977 25.5288 40.1504C24.9335 41.3065 23.7704 42.7915 22.3719 46.1388C22.2642 46.4011 22.2225 46.6857 22.2506 46.9678C22.2786 47.2499 22.3755 47.5208 22.5328 47.7566C22.69 47.9925 22.9028 48.1861 23.1524 48.3205C23.402 48.4549 23.6808 48.5259 23.9642 48.5273H27.4881L27.4812 49.8877C27.481 49.8992 27.481 49.9108 27.4812 49.9223V55.5404C27.4812 57.1673 27.2596 58.7908 28.3881 60.3346C28.9523 61.1031 29.8385 61.6465 30.8215 61.9373C31.8081 62.2281 32.9365 62.3285 34.3662 62.3285H38.34V70.9615C38.34 71.4206 38.5224 71.8608 38.8469 72.1854C39.1715 72.51 39.6117 72.6923 40.0708 72.6923H59.2477C59.7067 72.6923 60.1469 72.51 60.4715 72.1854C60.7961 71.8608 60.9785 71.4206 60.9785 70.9615V58.8531C60.9785 53.1173 62.4669 50.4277 64.1388 47.5165C65.7415 44.73 67.4965 41.5523 67.6558 36.5227C67.727 36.3299 67.7634 36.1259 67.7631 35.9204C67.7631 24.8365 58.6835 17.3146 48.7246 17.3146V17.3077ZM48.7246 20.7415V20.7554C56.9804 20.7554 64.3015 26.6815 64.3015 35.8996C64.3015 40.59 62.8546 42.7881 61.1377 45.7719C59.4208 48.7558 57.5135 52.4527 57.5135 58.8323V69.21H41.8015V60.5769C41.8015 60.1179 41.6192 59.6777 41.2946 59.3531C40.97 59.0285 40.5298 58.8462 40.0708 58.8462H34.3662C33.1269 58.8462 32.2788 58.7388 31.7977 58.5969C31.3131 58.455 31.2438 58.3512 31.1885 58.2715C31.0708 58.1123 30.9462 57.2054 30.9462 55.5196V49.8808C30.96 48.4788 30.9669 47.7069 30.9565 47.2327C30.9565 46.9904 30.9565 46.8519 30.9115 46.5681C30.8873 46.4296 30.8873 46.2323 30.6485 45.8585C30.2754 45.4053 29.7426 45.1129 29.16 45.0415H26.8338C27.4327 43.9754 28.1215 42.6462 28.6062 41.7081C29.4369 40.095 29.8835 38.1635 29.8835 34.4112C29.8835 28.9419 32.2962 25.7988 35.8996 23.6908C39.4996 21.5792 44.3838 20.7415 48.7246 20.7415ZM48.1985 24.2169V24.2238C45.1073 24.1892 41.2754 24.6115 38.1254 26.1104C36.5504 26.8581 35.1138 27.9104 34.1827 29.43C33.2515 30.9531 32.94 32.9123 33.4246 35.0031C33.9231 37.1492 35.46 38.6585 37.1181 39.0358C38.7727 39.4165 40.3235 39.0808 41.8223 38.8558C43.3212 38.6308 44.7542 38.4646 45.9277 38.6723C47.0977 38.88 48.0358 39.3369 49.0085 40.7527C50.0469 42.2654 51.2585 43.3246 52.6258 43.8577C53.2876 44.1169 53.9957 44.2374 54.706 44.2118C55.4164 44.1862 56.1139 44.015 56.7554 43.7088C59.2408 42.4973 60.6669 39.6381 60.9231 36.1488C61.1827 32.5315 59.5835 29.4231 57.15 27.3808C54.7131 25.3385 51.4869 24.2412 48.1985 24.2169ZM48.1708 27.6923C50.6977 27.7269 53.1969 28.5923 54.9242 30.0462C56.655 31.4965 57.6485 33.4038 57.4685 35.9135C57.2746 38.5546 56.1185 40.1815 55.2358 40.6108C55.0291 40.7215 54.7993 40.7823 54.5649 40.7883C54.3305 40.7943 54.0979 40.7454 53.8858 40.6454C53.3423 40.4377 52.6188 39.8977 51.8608 38.8004C50.4173 36.6992 48.4373 35.6158 46.5335 35.2765C44.6296 34.9373 42.8365 35.2177 41.3065 35.4496C39.7835 35.6746 38.5027 35.8131 37.8865 35.6712C37.2738 35.5327 37.1042 35.5327 36.7996 34.2242C36.4812 32.85 36.675 31.9985 37.1388 31.2404C37.5992 30.4858 38.4438 29.7865 39.6104 29.2327C41.9469 28.125 45.4465 27.6715 48.1708 27.6923Z" fill="#292040"/>
<path d="M48.4825 17C43.716 17 38.3125 17.8412 33.9095 20.42C29.4995 23.0023 26.1798 27.5612 26.1798 34.1312C26.1798 37.6412 25.8821 38.69 25.2868 39.8427C24.6914 40.9988 23.5283 42.4838 22.1298 45.8312C22.0221 46.0934 21.9804 46.378 22.0085 46.6601C22.0365 46.9422 22.1334 47.2131 22.2907 47.4489C22.4479 47.6848 22.6607 47.8784 22.9103 48.0128C23.1599 48.1472 23.4387 48.2182 23.7221 48.2196H27.246L27.2391 49.58C27.239 49.5915 27.239 49.6031 27.2391 49.6146V55.2327C27.2391 56.8596 27.0175 58.4831 28.146 60.0269C28.7102 60.7954 29.5964 61.3388 30.5795 61.6296C31.566 61.9204 32.6945 62.0208 34.1241 62.0208H38.0979V70.6538C38.0979 71.1129 38.2803 71.5531 38.6048 71.8777C38.9294 72.2023 39.3697 72.3846 39.8287 72.3846H59.0056C59.4646 72.3846 59.9049 72.2023 60.2294 71.8777C60.554 71.5531 60.7364 71.1129 60.7364 70.6538V58.5454C60.7364 52.8096 62.2248 50.12 63.8968 47.2088C65.4995 44.4223 67.2545 41.2446 67.4137 36.215C67.4849 36.0222 67.5213 35.8182 67.521 35.6127C67.521 24.5288 58.4414 17.0069 48.4825 17.0069V17ZM48.4825 20.4338V20.4477C56.7383 20.4477 64.0595 26.3738 64.0595 35.5919C64.0595 40.2823 62.6125 42.4804 60.8956 45.4642C59.1787 48.4481 57.2714 52.145 57.2714 58.5246V68.9023H41.5595V60.2692C41.5595 59.8102 41.3771 59.37 41.0525 59.0454C40.7279 58.7208 40.2877 58.5385 39.8287 58.5385H34.1241C32.8848 58.5385 32.0368 58.4312 31.5556 58.2892C31.071 58.1473 31.0018 58.0435 30.9464 57.9638C30.8287 57.8046 30.7041 56.8977 30.7041 55.2119V49.5731C30.7179 48.1712 30.7248 47.3992 30.7145 46.925C30.7145 46.6827 30.7145 46.5442 30.6695 46.2604C30.6452 46.1219 30.6452 45.9246 30.4064 45.5508C30.0334 45.0976 29.5005 44.8052 28.9179 44.7338H26.5918C27.1906 43.6677 27.8795 42.3385 28.3641 41.4004C29.1948 39.7873 29.6414 37.8558 29.6414 34.1035C29.6414 28.6342 32.0541 25.4912 35.6575 23.3831C39.2575 21.2715 44.1418 20.4338 48.4825 20.4338ZM47.9564 23.9092V23.9162C44.8652 23.8815 41.0333 24.3038 37.8833 25.8027C36.3083 26.5504 34.8718 27.6027 33.9406 29.1223C33.0095 30.6454 32.6979 32.6046 33.1825 34.6954C33.681 36.8415 35.2179 38.3508 36.876 38.7281C38.5306 39.1088 40.0814 38.7731 41.5802 38.5481C43.0791 38.3231 44.5121 38.1569 45.6856 38.3646C46.8556 38.5723 47.7937 39.0292 48.7664 40.445C49.8048 41.9577 51.0164 43.0169 52.3837 43.55C53.0456 43.8092 53.7536 43.9297 54.4639 43.9041C55.1743 43.8785 55.8718 43.7073 56.5133 43.4012C58.9987 42.1896 60.4248 39.3304 60.681 35.8412C60.9406 32.2238 59.3414 29.1154 56.9079 27.0731C54.471 25.0308 51.2448 23.9335 47.9564 23.9092ZM47.9287 27.3846C50.4556 27.4192 52.9548 28.2846 54.6821 29.7385C56.4129 31.1888 57.4064 33.0962 57.2264 35.6058C57.0325 38.2469 55.8764 39.8738 54.9937 40.3031C54.787 40.4138 54.5572 40.4746 54.3228 40.4806C54.0884 40.4866 53.8558 40.4377 53.6437 40.3377C53.1002 40.13 52.3768 39.59 51.6187 38.4927C50.1752 36.3915 48.1952 35.3081 46.2914 34.9688C44.3875 34.6296 42.5945 34.91 41.0645 35.1419C39.5414 35.3669 38.2606 35.5054 37.6445 35.3635C37.0318 35.225 36.8621 35.225 36.5575 33.9165C36.2391 32.5423 36.4329 31.6908 36.8968 30.9327C37.3571 30.1781 38.2018 29.4788 39.3683 28.925C41.7048 27.8173 45.2045 27.3638 47.9287 27.3846Z" fill="#BB84E8"/>
</svg>
