<svg width="300" height="300" viewBox="0 0 300 300" fill="none" xmlns="http://www.w3.org/2000/svg">
<path d="M75 150V225H225V75H75V150ZM195.876 144C199.469 144.834 202.734 146.713 205.26 149.4C206.651 150.848 207.86 152.46 208.86 154.2C208.86 154.392 202.38 158.772 198.432 161.22C198.288 161.316 197.712 160.692 197.076 159.744C196.355 158.5 195.331 157.46 194.099 156.719C192.868 155.978 191.468 155.562 190.032 155.508C185.484 155.196 182.556 157.584 182.58 161.508C182.542 162.485 182.766 163.454 183.228 164.316C184.224 166.392 186.084 167.628 191.916 170.148C202.656 174.768 207.252 177.816 210.108 182.148C213.3 186.948 214.008 194.7 211.848 200.436C209.448 206.676 203.568 210.912 195.252 212.316C191.454 212.751 187.616 212.711 183.828 212.196C178.047 211.258 172.713 208.505 168.6 204.336C167.22 202.812 164.532 198.84 164.7 198.552C165.138 198.227 165.599 197.934 166.08 197.676L171.6 194.508L175.908 192.012L176.808 193.344C178.327 195.517 180.26 197.368 182.496 198.792C187.296 201.312 193.848 200.964 197.088 198.048C198.176 196.979 198.854 195.563 199.006 194.046C199.157 192.529 198.771 191.006 197.916 189.744C196.716 188.076 194.316 186.672 187.608 183.744C179.868 180.408 176.532 178.344 173.484 175.056C171.581 172.886 170.176 170.326 169.368 167.556C168.765 164.391 168.676 161.149 169.104 157.956C170.7 150.48 176.304 145.26 184.488 143.712C188.278 143.243 192.117 143.348 195.876 144.024V144ZM160.668 150.288V156.432H141.192V211.908H127.38V156.42H107.856V150.42C107.804 148.354 107.86 146.288 108.024 144.228C108.096 144.132 120.024 144.084 134.424 144.108H160.596L160.668 150.288Z" fill="#D9D9D9"/>
<path d="M2.5 10C2.5 5.85787 5.85787 2.5 10 2.5H290C294.142 2.5 297.5 5.85787 297.5 10V290C297.5 294.142 294.142 297.5 290 297.5H10C5.85787 297.5 2.5 294.142 2.5 290V10Z" stroke="#FDFDFD" stroke-width="5"/>
</svg>
